<mxfile host="app.diagrams.net" modified="2024-01-18T19:47:07.754Z" agent="Mozilla/5.0 (Windows NT 10.0; Win64; x64; rv:121.0) Gecko/20100101 Firefox/121.0" version="22.1.21" etag="K2m2H8W5R5s_CasqqzI7" type="github">
  <diagram name="Page-1" id="n01L0HAOtvi0X351MrgV">
    <mxGraphModel>
      <root>
        <mxCell id="0" />
        <mxCell id="1" parent="0" />
      </root>
    </mxGraphModel>
  </diagram>
</mxfile>
